<svg width="50" height="50" viewBox="0 0 40 40" fill="none" xmlns="http://www.w3.org/2000/svg">
<path fill-rule="evenodd" clip-rule="evenodd" d="M36.6666 20.0002C36.6666 29.2052 29.2049 36.6668 19.9999 36.6668C10.7949 36.6668 3.33325 29.2052 3.33325 20.0002C3.33325 10.7952 10.7949 3.3335 19.9999 3.3335C29.2049 3.3335 36.6666 10.7952 36.6666 20.0002ZM24.9999 15.0002C24.9999 16.3262 24.4731 17.598 23.5355 18.5357C22.5978 19.4734 21.326 20.0002 19.9999 20.0002C18.6738 20.0002 17.4021 19.4734 16.4644 18.5357C15.5267 17.598 14.9999 16.3262 14.9999 15.0002C14.9999 13.6741 15.5267 12.4023 16.4644 11.4646C17.4021 10.5269 18.6738 10.0002 19.9999 10.0002C21.326 10.0002 22.5978 10.5269 23.5355 11.4646C24.4731 12.4023 24.9999 13.6741 24.9999 15.0002ZM19.9999 34.1668C22.8604 34.1714 25.6546 33.3059 28.0116 31.6852C29.0183 30.9935 29.4483 29.6768 28.8616 28.6052C27.6499 26.3835 25.1499 25.0002 19.9999 25.0002C14.8499 25.0002 12.3499 26.3835 11.1366 28.6052C10.5516 29.6768 10.9816 30.9935 11.9883 31.6852C14.3453 33.3059 17.1395 34.1714 19.9999 34.1668Z" fill="white"/>
</svg>
