<svg width="35" height="35" viewBox="0 0 45 45" fill="none" xmlns="http://www.w3.org/2000/svg">
<g clip-path="url(#clip0_363_1997)">
<path fill-rule="evenodd" clip-rule="evenodd" d="M4.47639 7.62877L6.69588 20.3907H20.3904C21.5554 20.3907 22.4998 21.3351 22.4998 22.5001C22.4998 23.6651 21.5554 24.6095 20.3904 24.6095H6.69588L4.47639 37.3714L39.1762 22.5001L4.47639 7.62877ZM2.78064 22.5001L0.178879 7.53995C-0.0314523 6.33055 0.359884 5.09443 1.2279 4.2264C2.31855 3.13577 3.96334 2.819 5.38103 3.42659L43.0752 19.5812C44.2427 20.0816 44.9998 21.2297 44.9998 22.5001C44.9998 23.7705 44.2427 24.9186 43.0752 25.419L5.38103 41.5735C3.96334 42.1813 2.31855 41.8643 1.2279 40.7739C0.359884 39.9057 -0.0314529 38.6696 0.178879 37.4603L2.78064 22.5001Z" fill="#8E8E93"/>
</g>
<defs>
<clipPath id="clip0_363_1997">
<rect width="45" height="45" fill="white"/>
</clipPath>
</defs>
</svg>
